<svg xmlns="http://www.w3.org/2000/svg" data-name="Layer 1" viewBox="0 0 128 160" x="0px" y="0px">
<path fill="#ffffff" d="M122.55127,78.52148a9.30514,9.30514,0,0,0-9.98535,1.42572C112.34283,80.1449,112,79.87329,112,79.627V48.373A4.37833,4.37833,0,0,0,107.62646,44a4.27714,4.27714,0,0,0-2.84717,1.06055,5.29912,5.29912,0,0,1-5.68945.76953,5.32031,5.32031,0,0,1-.00049-9.66016,5.29871,5.29871,0,0,1,5.68945.76953A4.27962,4.27962,0,0,0,107.62646,38,4.37833,4.37833,0,0,0,112,33.627V18a2.0001,2.0001,0,0,0-2-2H94.3736c-.24316,0-.51978-.34509-.32135-.56641a9.30142,9.30142,0,0,0,1.42627-9.98437,9.32091,9.32091,0,0,0-16.95752,0,9.30157,9.30157,0,0,0,1.42725,9.98529c.19824.22357-.07538.56549-.32178.56549H48.37354A4.37833,4.37833,0,0,0,44,20.373a4.275,4.275,0,0,0,1.06055,2.84766,5.297,5.297,0,0,1,.77,5.68945,5.32052,5.32052,0,0,1-9.66064,0,5.297,5.297,0,0,1,.77-5.68945A4.27641,4.27641,0,0,0,38,20.373,4.37833,4.37833,0,0,0,33.62646,16H18a2.0001,2.0001,0,0,0-2,2V33.627a.37343.37343,0,0,1-.37354.373.3137.3137,0,0,1-.19287-.05273,9.30743,9.30743,0,0,0-9.98486-1.42578,9.3207,9.3207,0,0,0,.00049,16.957,9.30409,9.30409,0,0,0,9.98389-1.4248A.30928.30928,0,0,1,15.62646,48,.37343.37343,0,0,1,16,48.373V79.627A4.37833,4.37833,0,0,0,20.37354,84a4.27714,4.27714,0,0,0,2.84717-1.06055,5.29666,5.29666,0,0,1,5.68945-.76953,5.32031,5.32031,0,0,1,.00049,9.66016,5.29735,5.29735,0,0,1-5.68945-.76953A4.27962,4.27962,0,0,0,20.37354,90,4.37833,4.37833,0,0,0,16,94.373V110a2.0001,2.0001,0,0,0,2,2H33.62646A.37343.37343,0,0,1,34,112.373a.31877.31877,0,0,1-.05273.19336,9.30142,9.30142,0,0,0-1.42627,9.98438,9.32091,9.32091,0,0,0,16.95752,0,9.30142,9.30142,0,0,0-1.42627-9.98437A.318.318,0,0,1,48,112.373a.37343.37343,0,0,1,.37354-.373H79.62646A4.37833,4.37833,0,0,0,84,107.627a4.275,4.275,0,0,0-1.06055-2.84766,5.297,5.297,0,0,1-.77-5.68945,5.32052,5.32052,0,0,1,9.66064,0,5.297,5.297,0,0,1-.77,5.68945A4.27641,4.27641,0,0,0,90,107.627,4.37833,4.37833,0,0,0,94.37354,112H110a2.0001,2.0001,0,0,0,2-2V94.373c0-.24359.34491-.51965.56641-.32031a9.30336,9.30336,0,0,0,9.98438,1.42578,9.3207,9.3207,0,0,0,.00049-16.957ZM48,61.626a.31679.31679,0,0,1,.05225-.19238,9.30142,9.30142,0,0,0,1.42627-9.98437,9.32091,9.32091,0,0,0-16.95752,0,9.30165,9.30165,0,0,0,1.42725,9.98535A.32071.32071,0,0,1,34,61.627a.37343.37343,0,0,1-.37354.373H20V48.373A4.37833,4.37833,0,0,0,15.62646,44a4.27714,4.27714,0,0,0-2.84717,1.06055,5.29912,5.29912,0,0,1-5.68945.76953,5.32031,5.32031,0,0,1-.00049-9.66016,5.299,5.299,0,0,1,5.68945.76953A4.27962,4.27962,0,0,0,15.62646,38,4.37833,4.37833,0,0,0,20,33.627V20H33.62646A.37426.37426,0,0,1,34,20.374a.31679.31679,0,0,1-.05225.19238,9.30142,9.30142,0,0,0-1.42627,9.98438,9.32091,9.32091,0,0,0,16.95752,0,9.30165,9.30165,0,0,0-1.42725-9.98535A.32071.32071,0,0,1,48,20.373.37343.37343,0,0,1,48.37354,20H62V33.627A4.37833,4.37833,0,0,0,66.37354,38c1.98907,0,3.02393-1.61969,4.79938-2.12439a5.68174,5.68174,0,0,1,3.73718.29425,5.40324,5.40324,0,0,1,.52545,9.38794,5.48213,5.48213,0,0,1-4.56329.45306c-1.11731-.39264-1.87158-1.31866-2.96454-1.73694A4.38259,4.38259,0,0,0,62,48.373V62H48.37354A.37426.37426,0,0,1,48,61.626Zm72.91016,30.2041a5.29632,5.29632,0,0,1-5.68994-.77051A4.279,4.279,0,0,0,112.37354,90,4.37833,4.37833,0,0,0,108,94.373V108H94.3736c-.24207,0-.519-.34595-.32135-.56641a9.30142,9.30142,0,0,0,1.42627-9.98438,9.32091,9.32091,0,0,0-16.95752,0,9.3018,9.3018,0,0,0,1.42682,9.98486c.19727.22266-.07733.56592-.32135.56592H66V94.373A4.37833,4.37833,0,0,0,61.62646,90a4.27714,4.27714,0,0,0-2.84717,1.06055,5.301,5.301,0,0,1-5.68945.76953,5.32031,5.32031,0,0,1-.00049-9.66016,5.29517,5.29517,0,0,1,5.68945.76953A4.27962,4.27962,0,0,0,61.62646,84,4.37833,4.37833,0,0,0,66,79.627V66H79.6264c.245,0,.519.34192.32086.56641A9.3257,9.3257,0,1,0,94.05121,66.564c-.1969-.22217.07367-.564.32233-.564H108V79.627A4.37833,4.37833,0,0,0,112.37354,84a4.27744,4.27744,0,0,0,2.84717-1.06055,5.29735,5.29735,0,0,1,5.68994-.76953,5.32031,5.32031,0,0,1-.00049,9.66016Z"/>
</svg>