<svg xmlns="http://www.w3.org/2000/svg" xmlns:xlink="http://www.w3.org/1999/xlink" viewBox="0 0 24 30" version="1.1" x="0px" y="0px"><title>show-map</title><desc>Created with Sketch.</desc><g stroke="none" stroke-width="1" fill="none" fill-rule="evenodd"><g fill="#000000"><path d="M3.4996353,10.5 C4.05227238,10.5 4.5,10.9475357 4.5,11.5 C4.5,12.0524643 4.05227238,12.5 3.4996353,12.5 C2.94721263,12.5 2.5,12.0526786 2.5,11.5 C2.5,10.9473214 2.94721263,10.5 3.4996353,10.5 L3.4996353,10.5 Z M12.4559335,7.91894975 C12.4848057,7.78362308 12.5,7.64322467 12.5,7.49927078 C12.5,7.35582543 12.4848583,7.21588931 12.4560858,7.08097411 L12.5291244,7.04445481 L16.7236068,4.9472136 L16.9918589,4.81308753 C17.3585968,5.23395195 17.8984668,5.5 18.5003647,5.5 C19.6044293,5.5 20.5,4.60374474 20.5,3.49927078 C20.5,2.39492452 19.6045571,1.5 18.5003647,1.5 C17.3955932,1.5 16.5,2.39477417 16.5,3.49927078 C16.5,3.64320484 16.515208,3.78359856 16.5441044,3.91893079 L16.2763932,4.0527864 L12.0819108,6.15002762 L12.0082874,6.18683931 C11.6414976,5.76607878 11.101505,5.5 10.4996353,5.5 C9.39587146,5.5 8.5,6.39595455 8.5,7.49927078 C8.5,7.64322065 8.51519507,7.78361937 8.54406761,7.9189492 L4.65205731,9.86495435 C4.32629492,9.63503916 3.92875118,9.5 3.4996353,9.5 C2.39487344,9.5 1.5,10.3950911 1.5,11.5 C1.5,12.6049089 2.39487344,13.5 3.4996353,13.5 C3.92875118,13.5 4.32629492,13.3649608 4.65205731,13.1350456 L8.54395165,15.0809928 C8.51515443,15.2161111 8.5,15.3562836 8.5,15.5 C8.5,16.6046946 9.39538849,17.5 10.4996353,17.5 C11.1017894,17.5 11.641775,17.2340954 12.0084894,16.8132617 L16.2763932,18.9472136 L16.5440093,19.0810217 C16.5151748,19.2161454 16.5,19.3563103 16.5,19.5 C16.5,20.6040455 17.3958715,21.5 18.5003647,21.5 C19.604279,21.5 20.5,20.6038951 20.5,19.5 C20.5,18.3961049 19.604279,17.5 18.5003647,17.5 C17.8984809,17.5 17.3585496,17.7660634 16.9917858,18.1868759 L16.7236068,18.0527864 L12.4560495,15.9190077 C12.4848463,15.7838926 12.5,15.6437204 12.5,15.5 C12.5,14.395155 11.6044612,13.5 10.4996353,13.5 C9.89783696,13.5 9.35807143,13.7659138 8.99146431,14.1867152 L5.31228842,12.3471272 C5.43271888,12.0899157 5.5,11.8028348 5.5,11.5 C5.5,11.1971652 5.43271888,10.9100843 5.31228842,10.6528728 L8.99163539,8.8131993 C9.35823412,9.23404501 9.89791909,9.5 10.4996353,9.5 C11.1017072,9.5 11.6416122,9.23405423 12.0083183,8.81317613 L16.5439516,11.0809928 C16.5151544,11.2161111 16.5,11.3562836 16.5,11.5 C16.5,12.6046946 17.3953885,13.5 18.4996353,13.5 C19.6044612,13.5 20.5,12.604845 20.5,11.5 C20.5,10.395155 19.6044612,9.5 18.4996353,9.5 C17.897837,9.5 17.3580714,9.76591379 16.9914643,10.1867152 L12.4559335,7.91894975 Z M18.5003647,18.5 C19.0518983,18.5 19.5,18.9482938 19.5,19.5 C19.5,20.0517062 19.0518983,20.5 18.5003647,20.5 C17.948177,20.5 17.5,20.0517815 17.5,19.5 C17.5,18.9482185 17.948177,18.5 18.5003647,18.5 Z M10.4996353,6.5 C11.0517477,6.5 11.5,6.94814334 11.5,7.49927078 C11.5,8.05214609 11.0521876,8.5 10.4996353,8.5 C9.94773727,8.5 9.5,8.05207084 9.5,7.49927078 C9.5,6.94821854 9.94817697,6.5 10.4996353,6.5 Z M18.5003647,2.5 C19.0524019,2.5 19.5,2.94733894 19.5,3.49927078 C19.5,4.05163097 19.0519734,4.5 18.5003647,4.5 C17.9481018,4.5 17.5,4.05170628 17.5,3.49927078 C17.5,2.94726384 17.9476732,2.5 18.5003647,2.5 Z M10.4996353,16.5 C9.94765246,16.5 9.5,16.0523891 9.5,15.5 C9.5,14.9476109 9.94765246,14.5 10.4996353,14.5 C11.0522724,14.5 11.5,14.9475357 11.5,15.5 C11.5,16.0524643 11.0522724,16.5 10.4996353,16.5 Z M18.4996353,12.5 C17.9476525,12.5 17.5,12.0523891 17.5,11.5 C17.5,10.9476109 17.9476525,10.5 18.4996353,10.5 C19.0522724,10.5 19.5,10.9475357 19.5,11.5 C19.5,12.0524643 19.0522724,12.5 18.4996353,12.5 Z"/></g></g></svg>