<svg xmlns="http://www.w3.org/2000/svg" xmlns:xlink="http://www.w3.org/1999/xlink" width="189.382" height="140.141" viewBox="0 0 189.382 140.141">
  <defs>
    <clipPath id="clip-path">
      <rect id="Rectangle_1675" data-name="Rectangle 1675" width="153.553" height="140.141" transform="translate(36.011 0.23)" fill="none"/>
    </clipPath>
    <clipPath id="clip-path-2">
      <rect id="Rectangle_1678" data-name="Rectangle 1678" width="71.658" height="114.024" transform="translate(0.182 26.347)" fill="none"/>
    </clipPath>
  </defs>
  <g id="Group_248" data-name="Group 248" transform="translate(-0.182 -0.23)">
    <g id="Group_241" data-name="Group 241">
      <g id="Group_240" data-name="Group 240" clip-path="url(#clip-path)">
        <path id="Path_90408" data-name="Path 90408" d="M36.329,108.02V7.549a6.993,6.993,0,0,1,3.111-5.82,6.9,6.9,0,0,1,1.21-.647A6.97,6.97,0,0,1,43.329.549H182.246a6.97,6.97,0,0,1,2.679.533,6.86,6.86,0,0,1,1.21.647,6.993,6.993,0,0,1,3.111,5.82V108.02a6.993,6.993,0,0,1-3.111,5.82,6.931,6.931,0,0,1-1.21.648,6.993,6.993,0,0,1-2.679.532H43.329a7,7,0,0,1-7-7Z" fill="none" stroke="#000" stroke-width="1"/>
        <rect id="Rectangle_1671" data-name="Rectangle 1671" width="137.722" height="86.204" transform="translate(43.934 7.731)" fill="none" stroke="#000" stroke-width="1"/>
        <line id="Line_23" data-name="Line 23" x1="152.917" transform="translate(36.329 101.346)" fill="none" stroke="#000" stroke-width="1"/>
        <line id="Line_24" data-name="Line 24" x1="137.722" transform="translate(43.934 17.855)" fill="none" stroke="#000" stroke-width="1"/>
        <rect id="Rectangle_1672" data-name="Rectangle 1672" width="59.319" height="57.085" transform="translate(53.825 27.125)" fill="none" stroke="#000" stroke-width="1"/>
        <path id="Path_90409" data-name="Path 90409" d="M104.522,75.293v.955h-.955" fill="none" stroke="#000" stroke-width="1"/>
        <path id="Path_90410" data-name="Path 90410" d="M66.517,76.748h-1.2v-1h1.2m11.728,1H72.381v-1h5.864m11.728,1H84.109v-1h5.864m11.728,1H95.837v-1H101.7"/>
        <path id="Path_90411" data-name="Path 90411" d="M64.382,76.248h-.955v-.955" fill="none" stroke="#000" stroke-width="1"/>
        <path id="Path_90412" data-name="Path 90412" d="M62.928,38.243v-1.2h1v1.2m-1,11.728V44.108h1v5.863m-1,11.728V55.835h1V61.7m-1,11.728V67.564h1v5.863"/>
        <path id="Path_90413" data-name="Path 90413" d="M63.428,36.108v-.954h.955" fill="none" stroke="#000" stroke-width="1"/>
        <path id="Path_90414" data-name="Path 90414" d="M101.432,34.654h1.2v1h-1.2m-11.728-1h5.864v1H89.7m-11.728-1H83.84v1H77.976m-11.728-1h5.864v1H66.248"/>
        <path id="Path_90415" data-name="Path 90415" d="M103.567,35.154h.955v.954" fill="none" stroke="#000" stroke-width="1"/>
        <path id="Path_90416" data-name="Path 90416" d="M105.022,73.159v1.2h-1v-1.2m1-11.729v5.864h-1V61.43m1-11.727v5.863h-1V49.7m1-11.729v5.864h-1V37.974"/>
        <path id="Path_90417" data-name="Path 90417" d="M83.975,55.7,89.2,69.085l1.977-3.829,3.582,3.212,1.73-1.483-3.459-3.459,3.953-2.595Z" fill="none" stroke="#000" stroke-width="1"/>
        <rect id="Rectangle_1673" data-name="Rectangle 1673" width="56.572" height="16.886" transform="translate(119.24 27.092)" fill="none" stroke="#000" stroke-width="1"/>
        <rect id="Rectangle_1674" data-name="Rectangle 1674" width="55.966" height="36.254" transform="translate(119.846 47.956)" fill="none" stroke="#000" stroke-width="1"/>
        <circle id="Ellipse_7" data-name="Ellipse 7" cx="1.579" cy="1.579" r="1.579" transform="translate(53.824 11.373)" fill="none" stroke="#000" stroke-width="1"/>
        <circle id="Ellipse_8" data-name="Ellipse 8" cx="1.579" cy="1.579" r="1.579" transform="translate(60.388 11.373)" fill="none" stroke="#000" stroke-width="1"/>
        <circle id="Ellipse_9" data-name="Ellipse 9" cx="1.579" cy="1.579" r="1.579" transform="translate(66.652 11.373)" fill="none" stroke="#000" stroke-width="1"/>
        <path id="Path_90418" data-name="Path 90418" d="M133.816,136.481H92.139l3.969-21.461h34.136Z" fill="none" stroke="#000" stroke-width="1"/>
        <path id="Path_90419" data-name="Path 90419" d="M143.424,140.053H82.216a1.786,1.786,0,1,1,0-3.572h61.208a1.786,1.786,0,1,1,0,3.572Z" fill="none" stroke="#000" stroke-width="1"/>
      </g>
    </g>
    <rect id="Rectangle_1676" data-name="Rectangle 1676" width="71.022" height="103.317" transform="translate(0.5 36.736)" fill="#fff"/>
    <g id="Group_243" data-name="Group 243">
      <g id="Group_242" data-name="Group 242" clip-path="url(#clip-path-2)">
        <rect id="Rectangle_1677" data-name="Rectangle 1677" width="71.022" height="103.317" transform="translate(0.5 36.736)" fill="none" stroke="#000" stroke-width="1"/>
      </g>
    </g>
    <rect id="Rectangle_1679" data-name="Rectangle 1679" width="71.022" height="10.068" transform="translate(0.5 26.667)" fill="#fff"/>
    <g id="Group_245" data-name="Group 245">
      <g id="Group_244" data-name="Group 244" clip-path="url(#clip-path-2)">
        <rect id="Rectangle_1680" data-name="Rectangle 1680" width="71.022" height="10.068" transform="translate(0.5 26.667)" fill="none" stroke="#000" stroke-width="1"/>
      </g>
    </g>
    <line id="Line_25" data-name="Line 25" x2="11.388" transform="translate(11.012 49.705)" fill="none" stroke="#000" stroke-width="1"/>
    <line id="Line_26" data-name="Line 26" x2="7.449" transform="translate(54.683 63.831)" fill="none" stroke="#000" stroke-width="1"/>
    <line id="Line_27" data-name="Line 27" x2="17.759" transform="translate(27.176 49.705)" fill="none" stroke="#000" stroke-width="1"/>
    <line id="Line_28" data-name="Line 28" x2="11.388" transform="translate(11.012 91.693)" fill="none" stroke="#000" stroke-width="1"/>
    <line id="Line_29" data-name="Line 29" x2="17.759" transform="translate(27.176 91.693)" fill="none" stroke="#000" stroke-width="1"/>
    <line id="Line_30" data-name="Line 30" x2="11.388" transform="translate(11.012 112.512)" fill="none" stroke="#000" stroke-width="1"/>
    <line id="Line_31" data-name="Line 31" x2="17.759" transform="translate(27.176 112.512)" fill="none" stroke="#000" stroke-width="1"/>
    <line id="Line_32" data-name="Line 32" x2="23.689" transform="translate(27.132 63.831)" fill="none" stroke="#000" stroke-width="1"/>
    <line id="Line_33" data-name="Line 33" x2="7.449" transform="translate(54.683 84.753)" fill="none" stroke="#000" stroke-width="1"/>
    <line id="Line_34" data-name="Line 34" x2="23.689" transform="translate(27.132 84.753)" fill="none" stroke="#000" stroke-width="1"/>
    <line id="Line_35" data-name="Line 35" x2="7.449" transform="translate(54.499 105.572)" fill="none" stroke="#000" stroke-width="1"/>
    <line id="Line_36" data-name="Line 36" x2="23.689" transform="translate(26.948 105.572)" fill="none" stroke="#000" stroke-width="1"/>
    <line id="Line_37" data-name="Line 37" x2="7.449" transform="translate(54.986 126.391)" fill="none" stroke="#000" stroke-width="1"/>
    <line id="Line_38" data-name="Line 38" x2="23.689" transform="translate(27.435 126.391)" fill="none" stroke="#000" stroke-width="1"/>
    <line id="Line_39" data-name="Line 39" x2="35.968" transform="translate(18.715 56.796)" fill="none" stroke="#000" stroke-width="1"/>
    <line id="Line_40" data-name="Line 40" x2="35.968" transform="translate(18.715 77.58)" fill="none" stroke="#000" stroke-width="1"/>
    <line id="Line_41" data-name="Line 41" x2="35.968" transform="translate(18.715 98.632)" fill="none" stroke="#000" stroke-width="1"/>
    <line id="Line_42" data-name="Line 42" x2="35.968" transform="translate(18.715 119.451)" fill="none" stroke="#000" stroke-width="1"/>
    <g id="Group_247" data-name="Group 247">
      <g id="Group_246" data-name="Group 246" clip-path="url(#clip-path-2)">
        <path id="Path_90420" data-name="Path 90420" d="M9.573,31.7a1.579,1.579,0,1,1-1.579-1.579A1.579,1.579,0,0,1,9.573,31.7" fill="#fff"/>
        <circle id="Ellipse_10" data-name="Ellipse 10" cx="1.579" cy="1.579" r="1.579" transform="translate(6.415 30.122)" fill="none" stroke="#000" stroke-width="1"/>
        <path id="Path_90421" data-name="Path 90421" d="M16.136,31.7a1.579,1.579,0,1,1-1.579-1.579A1.579,1.579,0,0,1,16.136,31.7" fill="#fff"/>
        <circle id="Ellipse_11" data-name="Ellipse 11" cx="1.579" cy="1.579" r="1.579" transform="translate(12.978 30.122)" fill="none" stroke="#000" stroke-width="1"/>
        <path id="Path_90422" data-name="Path 90422" d="M22.4,31.7a1.578,1.578,0,1,1-1.579-1.579A1.579,1.579,0,0,1,22.4,31.7" fill="#fff"/>
        <circle id="Ellipse_12" data-name="Ellipse 12" cx="1.579" cy="1.579" r="1.579" transform="translate(19.242 30.122)" fill="none" stroke="#000" stroke-width="1"/>
      </g>
    </g>
  </g>
</svg>
