<svg xmlns="http://www.w3.org/2000/svg" xmlns:xlink="http://www.w3.org/1999/xlink" version="1.1" x="0px" y="0px" viewBox="0 0 90 112.5" style="enable-background:new 0 0 90 90;" xml:space="preserve"><path d="M42.4,18.8H20.8c-0.3,0-0.5,0.2-0.5,0.5c0,0.3,0.2,0.5,0.5,0.5h21.6c0.2,0,0.5-0.2,0.5-0.5C42.9,19,42.7,18.8,42.4,18.8z"/><path d="M44.5,54.7h27.9c0.8,0,1.5-0.6,1.5-1.5V42.4c0-0.8-0.7-1.5-1.5-1.5H44.5c-0.8,0-1.5,0.7-1.5,1.5v6.1H32v-1v-21  c0-0.1,0-0.2-0.1-0.3h13.6c0.8,0,1.5-0.6,1.5-1.5V13.9c0-0.8-0.7-1.5-1.5-1.5H17.6c-0.8,0-1.5,0.7-1.5,1.5v10.8  c0,0.8,0.7,1.5,1.5,1.5h13.5C31,26.3,31,26.4,31,26.5v21V49v22c0,0.3,0.2,0.5,0.5,0.5H43v4.6c0,0.8,0.7,1.5,1.5,1.5h27.9  c0.8,0,1.5-0.7,1.5-1.5V65.3c0-0.8-0.7-1.5-1.5-1.5H44.5c-0.8,0-1.5,0.7-1.5,1.5v5.2H32v-21h11v3.7C43,54,43.7,54.7,44.5,54.7z   M17.1,24.7V13.9c0-0.3,0.2-0.5,0.5-0.5h27.9c0.3,0,0.5,0.2,0.5,0.5v10.8c0,0.3-0.2,0.5-0.5,0.5H17.6C17.3,25.2,17.1,25,17.1,24.7z   M44,65.3c0-0.3,0.2-0.5,0.5-0.5h27.9c0.3,0,0.5,0.2,0.5,0.5v10.8c0,0.3-0.2,0.5-0.5,0.5H44.5c-0.3,0-0.5-0.2-0.5-0.5V65.3z   M44,42.4c0-0.3,0.2-0.5,0.5-0.5h27.9c0.3,0,0.5,0.2,0.5,0.5v10.8c0,0.3-0.2,0.5-0.5,0.5H44.5c-0.3,0-0.5-0.2-0.5-0.5V42.4z"/><path d="M47.6,48.3h21.6c0.3,0,0.5-0.2,0.5-0.5s-0.2-0.5-0.5-0.5H47.6c-0.3,0-0.5,0.2-0.5,0.5S47.3,48.3,47.6,48.3z"/><path d="M47.6,71.2h10.8c0.3,0,0.5-0.2,0.5-0.5c0-0.3-0.2-0.5-0.5-0.5H47.6c-0.3,0-0.5,0.2-0.5,0.5C47.1,71,47.3,71.2,47.6,71.2z"/></svg>